<?xml version="1.0" standalone="no"?>
<!DOCTYPE svg PUBLIC "-//W3C//DTD SVG 20010904//EN"
 "http://www.w3.org/TR/2001/REC-SVG-20010904/DTD/svg10.dtd">
<svg version="1.0" xmlns="http://www.w3.org/2000/svg"
 width="700.000000pt" height="700.000000pt" viewBox="0 0 700.000000 700.000000"
 preserveAspectRatio="xMidYMid meet">
<metadata>
Created by potrace 1.14, written by Peter Selinger 2001-2017
</metadata>
<g transform="translate(0.000000,700.000000) scale(0.100000,-0.100000)"
fill="#000000" stroke="none">
<path d="M355 6883 c-104 -25 -199 -114 -233 -217 -66 -199 24 -394 209 -456
55 -19 60 -19 602 -20 64 0 117 -4 117 -9 0 -5 20 -51 44 -102 24 -52 58 -125
76 -164 18 -38 115 -250 217 -470 102 -220 212 -458 245 -530 33 -71 80 -173
105 -225 25 -52 52 -113 61 -135 8 -22 18 -44 22 -50 4 -5 45 -91 90 -190 45
-99 104 -227 131 -284 27 -57 49 -105 49 -106 0 -3 21 -49 125 -271 l42 -90
-81 -61 c-45 -33 -137 -102 -206 -153 -236 -174 -341 -314 -395 -524 -53 -202
-10 -431 112 -600 137 -190 329 -302 588 -340 60 -9 580 -12 2070 -11 1914 1
1992 2 2035 20 132 54 202 167 195 313 -6 144 -97 256 -235 288 -19 4 -903 8
-1965 9 -1062 1 -1946 5 -1965 9 -216 50 -244 288 -49 408 33 21 89 35 164 43
60 6 103 11 173 20 20 2 84 9 142 15 58 6 121 13 140 15 72 9 161 19 275 30
33 4 71 8 85 10 33 4 111 13 180 20 30 3 71 8 90 10 19 3 58 7 85 9 28 3 66 8
85 10 19 3 66 8 103 11 37 4 76 8 85 10 9 1 49 6 87 9 39 4 87 9 108 11 90 12
116 14 177 20 36 4 76 8 90 10 14 2 54 6 90 10 36 3 83 8 105 11 107 12 132
15 155 19 14 2 61 7 105 11 44 3 89 8 100 10 10 2 49 6 85 9 36 3 74 8 85 10
11 2 52 7 90 10 39 4 84 9 100 11 17 2 55 6 85 10 30 3 66 7 80 9 14 2 54 7
90 10 36 3 76 8 90 10 28 4 125 14 185 20 22 2 63 6 90 10 28 3 70 8 95 10 25
3 63 7 85 10 22 3 63 7 90 10 28 3 66 7 85 10 19 2 62 7 95 10 123 12 191 41
270 116 58 55 99 129 112 204 5 28 8 478 8 1000 -1 860 -3 955 -18 1006 -38
127 -131 213 -267 248 -73 19 -131 20 -2225 20 -1182 0 -2196 1 -2252 1 l-101
0 -163 328 c-90 180 -175 345 -190 367 -64 95 -150 156 -264 185 -62 16 -120
18 -510 18 -242 0 -449 -2 -460 -5z m3027 -1763 c59 -178 105 -327 102 -329
-3 -3 -225 -6 -493 -6 l-489 0 -78 170 c-124 272 -163 356 -193 420 -16 33
-27 62 -26 65 2 3 243 5 537 5 l533 0 107 -325z m1265 317 c4 -5 8 -12 8 -15
1 -7 15 -75 21 -97 66 -264 125 -525 120 -533 -5 -8 -952 -9 -960 -2 -4 5 -38
110 -136 430 -22 69 -46 145 -55 169 -9 27 -12 47 -6 50 15 10 999 7 1008 -2z
m1619 -312 c0 -176 -3 -324 -7 -330 -5 -6 -197 -10 -546 -9 -296 1 -545 2
-554 3 -11 1 -19 19 -27 59 -6 31 -13 68 -16 82 -15 71 -49 222 -61 275 -8 33
-21 92 -30 130 -8 39 -17 79 -20 90 -4 20 0 20 628 20 l632 0 1 -320z m-2642
-825 c151 -462 207 -642 204 -645 -3 -3 -35 -8 -128 -20 -19 -2 -71 -7 -115
-10 -44 -3 -87 -8 -95 -10 -8 -2 -52 -6 -97 -10 -46 -3 -91 -8 -100 -9 -10 -2
-57 -7 -105 -10 -48 -4 -98 -9 -111 -12 -21 -3 -28 6 -72 99 -26 56 -68 145
-93 197 -24 52 -52 113 -62 135 -10 22 -54 118 -100 214 -45 95 -85 183 -90
195 l-8 22 464 -1 464 0 44 -135z m1239 130 c6 -6 184 -606 189 -635 3 -18 -4
-21 -67 -26 -38 -4 -92 -9 -120 -13 -27 -3 -81 -8 -120 -11 -38 -4 -86 -8
-105 -10 -19 -2 -66 -7 -105 -10 -38 -3 -81 -8 -95 -10 -33 -6 -175 -18 -224
-19 l-40 -1 -73 225 c-41 124 -96 290 -122 370 l-48 146 463 -1 c254 0 464 -2
467 -5z m1402 -248 c0 -140 -2 -257 -5 -262 -3 -5 -30 -12 -60 -15 -123 -12
-157 -16 -310 -31 -30 -3 -68 -7 -85 -9 -16 -2 -64 -7 -105 -10 -41 -3 -86 -8
-100 -10 -14 -2 -63 -7 -110 -10 -47 -4 -88 -9 -92 -11 -4 -3 -12 5 -18 16 -6
11 -8 20 -6 20 3 0 1 12 -4 26 -9 24 -140 533 -140 545 0 2 233 5 518 4 l517
0 0 -253z"/>
<path d="M1455 1413 c-293 -39 -518 -290 -529 -589 -6 -152 57 -312 166 -425
80 -82 94 -91 239 -159 24 -12 119 -30 174 -33 45 -3 128 5 180 17 229 53 405
235 451 465 62 312 -125 618 -431 706 -58 17 -190 26 -250 18z"/>
<path d="M5555 1405 c-224 -58 -390 -209 -457 -415 -27 -83 -33 -241 -12 -320
56 -216 234 -391 454 -446 75 -19 213 -21 285 -4 28 6 88 29 135 52 238 114
372 384 323 647 -43 226 -187 393 -405 468 -87 30 -243 38 -323 18z"/>
</g>
</svg>
