<?xml version="1.0" encoding="UTF-8" standalone="no"?>
<svg
   class="css-ze2te4 css-qd6ojx"
   viewBox="0 0 512.00002 512.00001"
   version="1.1"
   id="svg52"
   sodipodi:docname="logo.svg"
   inkscape:version="1.2.2 (1:1.2.2+202305151914+b0a8486541)"
   width="512"
   height="512"
   xmlns:inkscape="http://www.inkscape.org/namespaces/inkscape"
   xmlns:sodipodi="http://sodipodi.sourceforge.net/DTD/sodipodi-0.dtd"
   xmlns="http://www.w3.org/2000/svg"
   xmlns:svg="http://www.w3.org/2000/svg">
  <defs
     id="defs56" />
  <sodipodi:namedview
     id="namedview54"
     pagecolor="#ffffff"
     bordercolor="#000000"
     borderopacity="0.25"
     inkscape:showpageshadow="2"
     inkscape:pageopacity="0.0"
     inkscape:pagecheckerboard="0"
     inkscape:deskcolor="#d1d1d1"
     showgrid="false"
     inkscape:zoom="1.280939"
     inkscape:cx="121.39532"
     inkscape:cy="230.69014"
     inkscape:window-width="1920"
     inkscape:window-height="962"
     inkscape:window-x="0"
     inkscape:window-y="0"
     inkscape:window-maximized="1"
     inkscape:current-layer="g50" />
  <g
     class="css-1e98oqk"
     fill="#ffffff"
     transform="matrix(0.58103781,0,0,0.57527321,-18.687365,-9.2460984)"
     id="g50"
     style="fill:#ffffff;fill-opacity:1;stroke-width:1.05097">
    <g
       id="g48"
       style="fill:#ffffff;fill-opacity:1;stroke-width:0.123645"
       transform="matrix(8.499976,0,0,8.499976,161.10933,104.45888)">
      <path
         d="m 79.219,4.735 c 4.355,0 6.388,2.613 6.388,5.806 v 27.141 c 0,3.048 -2.323,5.515 -5.371,5.804 l -58.637,6.533 c -4.788,0.581 -5.371,6.82 0.292,6.82 H 77.48 c 6.382,0 6.382,9.435 0,9.435 H 20.728 C 7.953,66.274 3.166,52.198 13.179,44.794 L 18.259,41.02 0.264,1.688 h -8.852 c -6.825,0 -6.825,-10.451 0,-10.451 H 1.718 c 5.22,0 6.674,2.47 8.268,6.242 l 3.632,7.257 H 79.219 Z M 16.664,82.239 c 0,4.934 -3.917,8.997 -9.143,8.997 -4.934,0 -8.997,-4.063 -8.997,-8.997 0,-5.079 4.063,-9.144 8.997,-9.144 5.226,0.001 9.143,4.065 9.143,9.144 z M 21.89,22.732 h 14.655 l -3.188,-9.87 H 17.388 Z M 41.625,39.714 37.853,27.958 H 24.062 l 5.955,12.918 z m -3.048,-26.851 3.048,9.87 h 14.368 l -2.317,-9.87 z M 59.77,37.828 56.869,27.958 H 43.078 l 3.626,11.175 z M 77.619,12.863 H 58.9 l 2.173,9.87 h 16.546 z m 0.438,69.376 c 0,4.934 -3.918,8.997 -8.998,8.997 -5.079,0 -9.143,-4.063 -9.143,-8.997 0,-5.079 4.063,-9.144 9.143,-9.144 5.08,0.001 8.998,4.065 8.998,9.144 z M 77.619,27.958 H 62.234 l 2.324,9.144 13.061,-1.305 z"
         id="path46"
         style="fill:#ffffff;fill-opacity:1;stroke-width:0.123645" />
    </g>
  </g>
</svg>
